<?xml version="1.0" encoding="utf-8"?>
<!-- Generator: Adobe Illustrator 16.0.0, SVG Export Plug-In . SVG Version: 6.00 Build 0)  -->
<!DOCTYPE svg PUBLIC "-//W3C//DTD SVG 1.1//EN" "http://www.w3.org/Graphics/SVG/1.1/DTD/svg11.dtd">
<svg version="1.1"
	 id="Layer_1" xmlns:rdf="http://www.w3.org/1999/02/22-rdf-syntax-ns#" xmlns:cc="http://creativecommons.org/ns#" xmlns:dc="http://purl.org/dc/elements/1.1/"
	 xmlns="http://www.w3.org/2000/svg" xmlns:xlink="http://www.w3.org/1999/xlink" x="0px" y="0px" width="269.74px"
	 height="289.396px" viewBox="0 0 269.74 289.396" enable-background="new 0 0 269.74 289.396" xml:space="preserve">
<g transform="translate(-86.700658,-118.24845)">
	<g transform="matrix(10.556733,0,0,-10.556733,165.02106,325.76216)">
		<path fill="#EB1A2C" d="M-1.484,3.931h0.002c-0.584,1.364-0.91,2.889-0.91,4.528V8.52c0,4.797,2.839,8.796,7.097,10.391
			l-0.003,0.001l0.002,0.001c-0.901,0.207-1.886,0.315-2.946,0.315h-9.178V-2.188h5.935v6.113l-0.003,0.006H-1.484z"/>
	</g>
	<g transform="matrix(10.556733,0,0,-10.556733,246.70163,128.08733)">
		<path fill="#2C338E" d="M-3.031,0.186c2.878-0.664,4.879-2.354,5.626-4.868L2.6-4.683l0.001-0.002
			c1.278-0.36,2.276-1.185,3.174-2.307l4.466,3.457C8.345-0.904,5.53,0.932,1.155,0.932c-1.499,0-2.906-0.265-4.188-0.744
			l-0.002-0.001L-3.031,0.186"/>
	</g>
	<g transform="matrix(10.556733,0,0,-10.556733,364.92758,306.38531)">
		<path fill="#2C338E" d="M-5.271,3.564c-1.285-1.56-2.6-2.601-4.834-2.601c-1.49,0-2.762,0.621-3.663,1.638
			c-1.122-0.335-2.375-0.506-3.721-0.506h-2.929h-0.002h-0.003l0.003-0.006c1.697-3.953,5.583-6.54,10.131-6.54
			c4.742,0,7.465,2.049,9.485,4.834L-5.271,3.564"/>
	</g>
	<g transform="matrix(10.556733,0,0,-10.556733,266.72463,287.37786)">
		<path fill="#3EBA61" d="M-3.411,3.204c0.005,1.261-0.744,2.486-2,3.211l-0.035,0.02c-0.087,0.05-0.175,0.098-0.264,0.142
			c0.594,2.328,2.454,4.029,4.907,4.029c0.541,0,1.035-0.07,1.495-0.198l0.006-0.002v-0.002C0.91,9.689,1.022,8.91,1.022,8.067
			V8.005c0-1.31-0.262-2.459-0.742-3.443C0.046,4.615-0.193,4.64-0.433,4.64c-0.974,0-1.974-0.422-2.766-1.214l-0.029-0.029
			C-3.291,3.335-3.352,3.27-3.411,3.204"/>
	</g>
	<g transform="matrix(10.556733,0,0,-10.556733,252.80765,319.08184)">
		<path fill="#ABE0AC" d="M-3.147,3.805h-0.002c-0.481,0.116-0.966,0.31-1.451,0.59l-0.035,0.02
			c-2.17,1.252-2.851,3.309-2.321,5.547c0.231,0.047,0.469,0.07,0.711,0.07c0.608,0,1.242-0.15,1.853-0.452
			c-0.132-0.517-0.202-1.065-0.202-1.632V7.888C-4.593,6.272-4.059,4.835-3.147,3.805"/>
	</g>
	<g transform="matrix(10.556733,0,0,-10.556733,252.80765,319.08184)">
		<path fill="#2AB359" d="M-3.147,3.805c-0.912,1.03-1.446,2.467-1.446,4.083v0.061c0,0.567,0.07,1.115,0.202,1.632
			c0.089-0.044,0.177-0.091,0.264-0.142l0.035-0.02c1.256-0.725,2.005-1.95,2-3.211C-2.736,5.488-3.097,4.641-3.147,3.805"/>
	</g>
	<g transform="matrix(10.556733,0,0,-10.556733,286.72119,328.31375)">
		<path fill="#7BCF86" d="M-3.789,3.98c-0.855,0-1.725,0.244-2.57,0.7c2.166,0.647,3.842,1.911,4.745,3.76
			c0.574-0.129,1.118-0.417,1.578-0.877c0.254-0.253,0.453-0.519,0.609-0.795l0.002-0.003V6.763c-0.237-0.434-0.55-0.854-0.946-1.25
			l-0.029-0.029C-1.432,4.453-2.597,3.98-3.789,3.98"/>
	</g>
	<g transform="matrix(10.556733,0,0,-10.556733,252.80765,319.08184)">
		<path fill="#1EB056" d="M-3.147,3.805l0.002,0.003c0.226,0.222,0.431,0.482,0.61,0.794c0.299,0.518,0.44,1.065,0.442,1.606
			c0.059,0.066,0.12,0.13,0.183,0.194l0.029,0.029c0.791,0.791,1.791,1.214,2.766,1.214c0.241,0,0.479-0.026,0.714-0.078
			C0.695,5.716-0.981,4.453-3.147,3.805"/>
	</g>
	<g transform="matrix(10.556733,0,0,-10.556733,252.80765,319.08184)">
		<path fill="#15AD53" d="M-3.147,3.805c0.05,0.836,0.411,1.683,1.054,2.402c-0.002-0.541-0.142-1.088-0.442-1.606
			C-2.713,4.29-2.918,4.03-3.145,3.808L-3.147,3.805"/>
	</g>
</g>
<g>
	<path fill="#2C338E" d="M0,261.858v-0.087c0-8.282,6.115-15.696,15.307-15.696c9.192,0,15.219,7.327,15.219,15.609
		c0.043,0.043,0.043,0.043,0,0.087c0,8.281-6.114,15.696-15.305,15.696C6.028,277.467,0,270.139,0,261.858z M28.185,261.858v-0.087
		c0-7.501-5.463-13.658-12.964-13.658c-7.502,0-12.879,6.07-12.879,13.571v0.087c0,7.501,5.463,13.658,12.965,13.658
		C22.809,275.429,28.185,269.359,28.185,261.858z"/>
</g>
<g>
	<path fill="#2C338E" d="M38.199,246.594h2.125l20.944,26.407v-26.407h2.168v30.353h-1.69l-21.378-26.97v26.97h-2.168V246.594z"/>
	<path fill="#2C338E" d="M63.991,277.502h-2.516l-0.166-0.21l-20.386-25.72v25.93h-3.28v-31.464h2.949l20.119,25.367v-25.367h3.28
		V277.502z M62.014,276.391h0.865v-29.24h-1.056v27.446l-21.768-27.446h-1.301v29.24h1.057V248.38L62.014,276.391z"/>
</g>
<g>
	<path fill="#2C338E" d="M80.864,248.676h-10.58v-2.082h23.415v2.082h-10.58v28.271h-2.255V248.676z"/>
	<path fill="#2C338E" d="M83.675,277.502h-3.367v-28.271H69.729v-3.193h24.526v3.193H83.675V277.502z M81.42,276.391h1.143V248.12
		h10.581v-0.969H70.841v0.969H81.42V276.391z"/>
</g>
<g>
	<path fill="#2C338E" d="M108.181,246.377h2.168l14.135,30.569h-2.471l-3.86-8.499h-17.908l-3.858,8.499h-2.342L108.181,246.377z
		 M117.2,266.41l-7.979-17.56l-8.021,17.56H117.2z"/>
	<path fill="#2C338E" d="M126.223,278.059h-4.927l-3.859-8.499h-16.475l-3.859,8.499h-4.798l15.164-32.793h3.591L126.223,278.059z
		 M122.729,275.835h0.015l-0.896-1.938L122.729,275.835z M102.93,265.298h12.543l-6.254-13.767L102.93,265.298z"/>
</g>
<g>
	<path fill="#2C338E" d="M130.899,246.594h12.749c3.729,0,6.721,1.171,8.543,2.991c1.431,1.432,2.297,3.469,2.297,5.638v0.087
		c0,5.073-3.771,7.979-8.889,8.672l10.017,12.965h-2.861l-9.67-12.574h-0.087h-9.843v12.574h-2.255V246.594z M143.387,262.335
		c5.074,0,8.847-2.559,8.847-6.938v-0.087c0-4.076-3.209-6.634-8.716-6.634h-10.363v13.658H143.387z"/>
	<path fill="#2C338E" d="M157.879,278.059h-5.673l-9.669-12.575h-8.271v12.575h-4.479v-32.576h13.86
		c3.876,0,7.188,1.178,9.328,3.316c1.667,1.667,2.624,4.009,2.624,6.424c0,4.813-2.959,8.249-8.016,9.512L157.879,278.059z
		 M153.301,275.835h0.051l-9.576-12.394c-0.019,0-0.035,0.001-0.054,0.001l0.244,0.252L153.301,275.835z M132.011,275.835h0.032
		l-0.032-28.129V275.835z M134.266,261.222h9.121c4.699,0,7.735-2.286,7.735-5.825c0-3.597-2.772-5.609-7.604-5.609h-9.251V261.222z
		 M153.089,253.257c0.17,0.64,0.256,1.325,0.256,2.053c0,1.17-0.228,2.245-0.656,3.203c0.429-0.881,0.688-1.938,0.688-3.203
		C153.376,254.598,153.276,253.909,153.089,253.257z"/>
</g>
<g>
	<path fill="#2C338E" d="M162.551,246.594h2.255v30.353h-2.255V246.594z"/>
	<rect x="160.884" y="244.927" fill="#2C338E" width="5.59" height="33.688"/>
</g>
<g>
	<path fill="#2C338E" d="M172.783,261.858v-0.087c0-8.282,6.114-15.696,15.306-15.696c9.193,0,15.22,7.327,15.22,15.609
		c0.044,0.043,0.044,0.043,0,0.087c0,8.281-6.113,15.696-15.306,15.696S172.783,270.139,172.783,261.858z M200.968,261.858v-0.087
		c0-7.501-5.463-13.658-12.965-13.658s-12.878,6.07-12.878,13.571v0.087c0,7.501,5.463,13.658,12.964,13.658
		C195.592,275.429,200.968,269.359,200.968,261.858z"/>
	<path fill="#2C338E" d="M188.003,279.134c-9.628,0-16.888-7.427-16.888-17.276c0-9.824,7.455-17.451,16.974-17.451
		c9.397,0,16.539,7.076,16.876,16.573l0.703,0.704l-0.703,0.755C204.633,271.854,197.303,279.134,188.003,279.134z M188.003,249.78
		c-6.392,0-11.211,5.117-11.211,11.904c0,6.923,4.856,12.077,11.297,12.077c6.392,0,11.211-5.117,11.211-11.903
		C199.3,254.935,194.444,249.78,188.003,249.78z"/>
</g>
<g>
	<path fill="#2C338E" d="M210.982,246.594h11.015c6.677,0,11.272,3.426,11.272,9.279v0.087c0,6.374-5.506,9.669-11.837,9.669h-8.195
		v11.317h-2.255V246.594z M221.562,263.548c5.638,0,9.453-2.948,9.453-7.458v-0.087c0-4.812-3.729-7.327-9.192-7.327h-8.586v14.872
		H221.562z"/>
	<path fill="#2C338E" d="M215.46,279.17h-6.702v-34.799h13.238c8.072,0,13.496,4.621,13.496,11.502
		c0,7.09-5.782,11.979-14.061,11.979h-5.972V279.17z M215.46,261.325h6.102c3.336,0,7.23-1.371,7.23-5.234
		c0-4.527-4.367-5.19-6.97-5.19h-6.362V261.325z"/>
</g>
<g>
	<path fill="#2C338E" d="M238.601,261.858v-0.087c0-8.586,6.418-15.696,15.178-15.696c5.42,0,8.672,1.994,11.794,4.855l-1.604,1.647
		c-2.645-2.558-5.681-4.465-10.233-4.465c-7.285,0-12.792,5.939-12.792,13.571v0.087c0,7.675,5.594,13.658,12.836,13.658
		c4.379,0,7.371-1.69,10.449-4.727l1.518,1.475c-3.209,3.165-6.678,5.29-12.054,5.29
		C245.019,277.467,238.601,270.573,238.601,261.858z"/>
	<path fill="#2C338E" d="M253.691,279.691c-9.709,0-17.314-7.834-17.314-17.833c0-10.136,7.644-18.007,17.401-18.007
		c6.468,0,10.212,2.614,13.297,5.439l1.689,1.548l-4.75,4.879l-1.593-1.541c-2.82-2.728-5.338-3.84-8.688-3.84
		c-6.024,0-10.568,4.878-10.568,11.348c0,6.499,4.661,11.521,10.612,11.521c3.414,0,5.906-1.146,8.888-4.086l1.549-1.528
		l4.709,4.574l-1.618,1.595C264.333,276.693,260.392,279.691,253.691,279.691z"/>
</g>
</svg>
